<svg xmlns="http://www.w3.org/2000/svg" viewBox="34222 28321 123 81">
  <path fill="currentColor" d="M34287.3,28395.5C34315.9,28394.8 34339.5,28386.7 34344.4,28376.7C34344.4,28390.6 34317,28401.9 34283.2,28401.9C34249.5,28401.9 34222.1,28390.6 34222.1,28376.7C34226.9,28386.7 34250.5,28394.8 34279.1,28395.5L34279.1,28353.6L34242.4,28353.6L34242.4,28349.5L34279.1,28349.5L34279.1,28337.2C34272.1,28336.3 34266.9,28333.1 34266.9,28329.4C34266.9,28324.9 34274.2,28321.3 34283.2,28321.3C34292.2,28321.3 34299.5,28324.9 34299.5,28329.4C34299.5,28333.1 34294.3,28336.3 34287.3,28337.2L34287.3,28349.5L34324,28349.5L34324,28353.6L34287.3,28353.6L34287.3,28395.5ZM34283.2,28333.4C34287.7,28333.4 34291.4,28331.6 34291.4,28329.4C34291.4,28327.2 34287.7,28325.4 34283.2,28325.4C34278.7,28325.4 34275.1,28327.2 34275.1,28329.4C34275.1,28331.6 34278.7,28333.4 34283.2,28333.4Z"/>
</svg>