<?xml version="1.0" encoding="UTF-8" standalone="no"?>
<!DOCTYPE svg PUBLIC "-//W3C//DTD SVG 1.1//EN" "http://www.w3.org/Graphics/SVG/1.1/DTD/svg11.dtd">
<svg width="100%" height="100%" viewBox="0 0 100 100" version="1.1" xmlns="http://www.w3.org/2000/svg" xmlns:xlink="http://www.w3.org/1999/xlink" xml:space="preserve" xmlns:serif="http://www.serif.com/" style="fill-rule:evenodd;clip-rule:evenodd;stroke-linejoin:round;stroke-miterlimit:2;">
    <g transform="matrix(1,0,0,1,50,50)">
        <g transform="matrix(0.415945,0,0,0.436294,-2367.85,-2939.11)">
            <path d="M5597.48,6746.93C5597.47,6748.93 5596.93,6750.95 5595.8,6752.81C5592.35,6758.51 5584.7,6760.46 5578.73,6757.17C5572.75,6753.88 5570.7,6746.59 5574.15,6740.89C5577.6,6735.2 5585.25,6733.24 5591.23,6736.53C5587.49,6734.47 5584.98,6730.62 5584.98,6726.21C5584.98,6719.63 5590.58,6714.29 5597.48,6714.29C5604.38,6714.29 5609.98,6719.63 5609.98,6726.21C5609.98,6730.62 5607.46,6734.47 5603.73,6736.53C5609.7,6733.24 5617.35,6735.2 5620.8,6740.89C5624.25,6746.59 5622.2,6753.88 5616.23,6757.17C5610.25,6760.46 5602.6,6758.51 5599.15,6752.81C5598.03,6750.95 5597.49,6748.93 5597.48,6746.93ZM5591.24,6736.54C5595.22,6738.74 5597.45,6742.71 5597.48,6746.8C5597.5,6742.71 5599.73,6738.74 5603.71,6736.54C5601.88,6737.55 5599.75,6738.13 5597.48,6738.13C5595.21,6738.13 5593.08,6737.55 5591.24,6736.54ZM5787.89,6746.93C5787.88,6748.93 5787.34,6750.95 5786.22,6752.81C5782.77,6758.51 5775.12,6760.46 5769.14,6757.17C5763.17,6753.88 5761.12,6746.59 5764.57,6740.89C5768.02,6735.2 5775.67,6733.24 5781.64,6736.53C5777.91,6734.47 5775.39,6730.62 5775.39,6726.21C5775.39,6719.63 5780.99,6714.29 5787.89,6714.29C5794.79,6714.29 5800.39,6719.63 5800.39,6726.21C5800.39,6730.62 5797.88,6734.47 5794.14,6736.53C5800.12,6733.24 5807.77,6735.2 5811.22,6740.89C5814.67,6746.59 5812.62,6753.88 5806.64,6757.17C5800.67,6760.46 5793.02,6758.51 5789.57,6752.81C5788.44,6750.95 5787.9,6748.93 5787.89,6746.93ZM5781.66,6736.54C5785.64,6738.74 5787.87,6742.71 5787.89,6746.8C5787.92,6742.71 5790.15,6738.74 5794.13,6736.54C5792.29,6737.55 5790.16,6738.13 5787.89,6738.13C5785.62,6738.13 5783.49,6737.55 5781.66,6736.54ZM5652.76,6733.01L5593.69,6671.43L5574.24,6655.52L5572.48,6650.21L5600.76,6621.93L5606.07,6623.7L5621.98,6643.14L5684.21,6702.84L5652.76,6733.01ZM5732.98,6749.61L5795.22,6809.31C5799.46,6813.56 5794.35,6822.59 5791.68,6826.99C5791.68,6828.87 5792.43,6830.66 5793.75,6831.99C5795.08,6833.32 5796.88,6834.06 5798.75,6834.06C5800.63,6835.94 5801.68,6838.48 5801.68,6841.13C5801.68,6843.78 5800.63,6846.33 5798.75,6848.2C5796.88,6850.08 5794.33,6851.13 5791.68,6851.13C5789.03,6851.13 5786.48,6850.08 5784.61,6848.2C5784.61,6846.33 5783.86,6844.53 5782.54,6843.2C5781.21,6841.88 5779.41,6841.13 5777.54,6841.13C5773.14,6843.8 5764.1,6848.91 5759.86,6844.67L5700.83,6783.13L5732.98,6749.61ZM5586.62,6834.06C5588.49,6834.06 5590.29,6833.32 5591.62,6831.99C5592.95,6830.66 5593.69,6828.87 5593.69,6826.99C5591.02,6822.59 5585.91,6813.56 5590.15,6809.31L5763.4,6643.14L5779.31,6623.7L5784.61,6621.93L5812.89,6650.21L5811.13,6655.52L5791.68,6671.43L5625.51,6844.67C5621.27,6848.91 5612.23,6843.8 5607.83,6841.13C5605.96,6841.13 5604.16,6841.88 5602.83,6843.2C5601.51,6844.53 5600.76,6846.33 5600.76,6848.2C5598.89,6850.08 5596.34,6851.13 5593.69,6851.13C5591.04,6851.13 5588.49,6850.08 5586.62,6848.2C5584.74,6846.33 5583.69,6843.78 5583.69,6841.13C5583.69,6838.48 5584.74,6835.94 5586.62,6834.06Z"/>
        </g>
    </g>
</svg>
