<svg width="100%" height="100%" viewBox="0 0 100 300" version="1.1" xmlns="http://www.w3.org/2000/svg" xmlns:xlink="http://www.w3.org/1999/xlink" xml:space="preserve" xmlns:serif="http://www.serif.com/" style="fill-rule:evenodd;clip-rule:evenodd;stroke-linejoin:round;stroke-miterlimit:2;">
    <g id="Cannon" transform="matrix(1,0,0,1,-3791.84,-5298.34)">
        <g transform="matrix(0.602568,0,0,0.572895,-11517.8,2340.79)">
            <rect x="25407.3" y="5371.93" width="165.956" height="314.194" style="fill:rgb(132,125,97);"/>
        </g>
        <g id="Cheek" transform="matrix(0.8,0,0,1.09091,758.367,-508.94)">
            <g transform="matrix(0.150642,0,0,0.525153,-35.5683,2612.25)">
                <rect x="25407.3" y="5371.93" width="165.956" height="314.194" style="fill:rgb(132,125,97);"/>
            </g>
            <g transform="matrix(0.150642,0,0,0.437628,-35.5683,3082.43)">
                <rect x="25407.3" y="5371.93" width="165.956" height="314.194" style="fill:rgb(132,125,97);"/>
            </g>
            <g transform="matrix(0.150642,0,0,0.350102,-35.5683,3552.61)">
                <rect x="25407.3" y="5371.93" width="165.956" height="314.194" style="fill:rgb(132,125,97);"/>
            </g>
            <g transform="matrix(0.150642,0,0,0.262577,-35.5683,4022.79)">
                <rect x="25407.3" y="5371.93" width="165.956" height="314.194" style="fill:rgb(132,125,97);"/>
            </g>
        </g>
        <g id="Cheek1" serif:id="Cheek" transform="matrix(0.8,0,0,1.09091,778.367,-508.94)">
            <g transform="matrix(0.150642,0,0,0.525153,39.4317,2612.25)">
                <rect x="25407.3" y="5371.93" width="165.956" height="314.194" style="fill:rgb(132,125,97);"/>
            </g>
            <g transform="matrix(0.150642,0,0,0.437628,39.4317,3082.43)">
                <rect x="25407.3" y="5371.93" width="165.956" height="314.194" style="fill:rgb(132,125,97);"/>
            </g>
            <g transform="matrix(0.150642,0,0,0.350102,39.4317,3552.61)">
                <rect x="25407.3" y="5371.93" width="165.956" height="314.194" style="fill:rgb(132,125,97);"/>
            </g>
            <g transform="matrix(0.150642,0,0,0.262577,39.4317,4022.79)">
                <rect x="25407.3" y="5371.93" width="165.956" height="314.194" style="fill:rgb(132,125,97);"/>
            </g>
        </g>
        <g>
            <g id="Trunnion-1-15" serif:id="Trunnion 1/15" transform="matrix(1.42991,0,0,1.6743,-32780.5,-3605.28)">
                <path d="M25646.6,5404.41L25646.6,5410.38C25646.6,5412.03 25645,5413.37 25643.1,5413.37L25580.2,5413.37C25578.2,5413.37 25576.7,5412.03 25576.7,5410.38L25576.7,5404.41C25576.7,5402.76 25578.2,5401.43 25580.2,5401.43L25643.1,5401.43C25645,5401.43 25646.6,5402.76 25646.6,5404.41Z" style="fill:rgb(38,38,38);"/>
            </g>
            <g id="Trunnion-1-151" serif:id="Trunnion 1/15" transform="matrix(0.714955,0,0,2.51145,-14469.3,-8132.09)">
                <path d="M25646.6,5402.62L25646.6,5412.18C25646.6,5412.84 25644.7,5413.37 25642.4,5413.37L25580.9,5413.37C25578.5,5413.37 25576.7,5412.84 25576.7,5412.18L25576.7,5402.62C25576.7,5401.96 25578.5,5401.43 25580.9,5401.43L25642.4,5401.43C25644.7,5401.43 25646.6,5401.96 25646.6,5402.62Z" style="fill:rgb(38,38,38);"/>
            </g>
        </g>
        <g transform="matrix(0.228785,0,0,5.02291,-1977.73,-21712.5)">
            <path d="M25646.6,5402.06L25646.6,5412.73C25646.6,5413.08 25640.3,5413.37 25632.6,5413.37L25590.7,5413.37C25582.9,5413.37 25576.7,5413.08 25576.7,5412.73L25576.7,5402.06C25576.7,5401.71 25582.9,5401.43 25590.7,5401.43L25632.6,5401.43C25640.3,5401.43 25646.6,5401.71 25646.6,5402.06Z" style="fill:rgb(77,77,77);"/>
        </g>
        <g transform="matrix(0.228785,0,0,5.02291,-2057.73,-21712.5)">
            <path d="M25646.6,5402.06L25646.6,5412.73C25646.6,5413.08 25640.3,5413.37 25632.6,5413.37L25590.7,5413.37C25582.9,5413.37 25576.7,5413.08 25576.7,5412.73L25576.7,5402.06C25576.7,5401.71 25582.9,5401.43 25590.7,5401.43L25632.6,5401.43C25640.3,5401.43 25646.6,5401.71 25646.6,5402.06Z" style="fill:rgb(77,77,77);"/>
        </g>
        <g transform="matrix(0.228785,0,0,2.51145,-1977.73,-8132.09)">
            <rect x="25576.7" y="5401.43" width="69.935" height="11.945" style="fill:rgb(102,102,102);"/>
        </g>
        <g transform="matrix(0.228785,0,0,2.51145,-2057.73,-8132.09)">
            <rect x="25576.7" y="5401.43" width="69.935" height="11.945" style="fill:rgb(102,102,102);"/>
        </g>
        <g id="Cannon-Barrel" serif:id="Cannon Barrel" transform="matrix(1,0,0,1,-126.132,9.09495e-13)">
            <g id="Barrel-Chase" serif:id="Barrel Chase" transform="matrix(1.31756,0,0,0.831963,-29822.2,828.225)">
                <path d="M25665,5697.51L25627,5697.51L25630.8,5409.03L25661.2,5409.03L25665,5697.51Z" style="fill:rgb(38,38,38);"/>
            </g>
            <g id="pan" transform="matrix(1,0,0,1,0,7.5)">
                <g transform="matrix(0.430091,0,0,0.998691,-6973.06,19.7608)">
                    <path d="M25444.6,5525.81L25444.6,5548.34L25433,5548.34L25433,5525.81C25433,5524.43 25435.6,5523.31 25438.8,5523.31C25442,5523.31 25444.6,5524.43 25444.6,5525.81Z" style="fill:rgb(38,38,38);"/>
                </g>
                <g transform="matrix(1.03207,0,0,1.03207,-22349.5,-177.771)">
                    <circle cx="25499.7" cy="5548.18" r="4.845" style="fill:rgb(38,38,38);"/>
                </g>
                <g transform="matrix(0.516035,0,0,0.516035,-9190.77,2685.28)">
                    <circle cx="25499.7" cy="5548.18" r="4.845" style="fill:rgb(38,38,38);"/>
                </g>
            </g>
            <g id="Muzzle-Swell-1-12.5" serif:id="Muzzle Swell 1/12.5" transform="matrix(1.31756,-1.3933e-16,4.91787e-18,-0.0866628,-29822.2,5797.1)">
                <path d="M25663.1,5697.51L25628.9,5697.51L25630.8,5409.03L25661.2,5409.03L25663.1,5697.51Z" style="fill:rgb(38,38,38);"/>
            </g>
            <g id="Barrel-Breech-1-25" serif:id="Barrel Breech 1/25" transform="matrix(1.31756,4.10809e-17,-1.45001e-18,-0.0346651,-29822.2,5765.84)">
                <path d="M25665,5697.51C25665,5524.42 25657.4,5444.29 25653.6,5409.03L25638.4,5409.03C25634.6,5444.29 25627,5524.42 25627,5697.51L25665,5697.51Z" style="fill:rgb(38,38,38);"/>
            </g>
            <g id="Muzzle-Face-1-50" serif:id="Muzzle Face 1/50" transform="matrix(1.31756,2.7866e-17,4.91787e-18,0.0173326,-29822.2,5204.59)">
                <path d="M25663.1,5697.51L25628.9,5697.51L25630.8,5409.03L25661.2,5409.03L25663.1,5697.51Z" style="fill:rgb(38,38,38);"/>
            </g>
            <g id="Button-Neck-1-25" serif:id="Button Neck 1/25" transform="matrix(1.05741,4.39144e-17,-3.32242e-17,-0.528704,-23128.8,8535.26)">
                <path d="M25635.1,5592.78C25635.1,5592.78 25635.1,5592.78 25635.1,5592.78C25633.9,5590.27 25633.2,5586.87 25633.2,5583.32C25633.2,5579.78 25633.9,5576.38 25635.1,5573.87C25635.1,5573.87 25635.1,5573.87 25635.1,5573.87L25616.2,5573.87C25616.2,5573.87 25616.2,5573.87 25616.2,5573.87C25617.5,5576.38 25618.2,5579.78 25618.2,5583.32C25618.2,5586.87 25617.5,5590.27 25616.2,5592.78C25616.2,5592.78 25616.2,5592.78 25616.2,5592.78L25635.1,5592.78Z" style="fill:rgb(38,38,38);"/>
            </g>
            <g id="Button-1-25" serif:id="Button 1/25" transform="matrix(0.536154,-9.91291e-33,-9.91291e-33,0.536154,-9777.06,2577.6)">
                <path d="M25655,5615.43C25655,5620.38 25653,5625.12 25649.5,5628.62C25646,5632.12 25641.3,5634.08 25636.4,5634.08C25631.4,5634.08 25626.7,5632.12 25623.2,5628.62C25619.7,5625.12 25617.7,5620.38 25617.7,5615.43L25655,5615.43Z" style="fill:rgb(38,38,38);"/>
            </g>
        </g>
    </g>
</svg>