<?xml version="1.0" encoding="UTF-8" standalone="no"?>
<!DOCTYPE svg PUBLIC "-//W3C//DTD SVG 1.1//EN" "http://www.w3.org/Graphics/SVG/1.1/DTD/svg11.dtd">
<svg width="100%" height="100%" viewBox="0 0 100 100" version="1.1" xmlns="http://www.w3.org/2000/svg" xmlns:xlink="http://www.w3.org/1999/xlink" xml:space="preserve" xmlns:serif="http://www.serif.com/" style="fill-rule:evenodd;clip-rule:evenodd;stroke-linejoin:round;stroke-miterlimit:2;">
    <g transform="matrix(1,0,0,1,50,50)">
        <g transform="matrix(0.833333,0,0,0.833333,-73099.6,-25428.7)">
            <path d="M87779.5,30454.5L87779.5,30574.5L87659.5,30574.5L87659.5,30454.5L87779.5,30454.5ZM87770.5,30463.5L87668.5,30463.5L87668.5,30565.5L87770.5,30565.5L87770.5,30463.5ZM87767.5,30466.5L87767.5,30562.5L87671.5,30562.5L87671.5,30466.5L87767.5,30466.5ZM87701.9,30557.7L87701.9,30552.4L87696.6,30552.4L87696.6,30557.7L87701.9,30557.7ZM87691.8,30557.7L87691.8,30552.4L87686.4,30552.4L87686.4,30557.7L87691.8,30557.7ZM87676.3,30517.2L87681.6,30517.2L87681.6,30511.8L87676.3,30511.8L87676.3,30517.2ZM87762.7,30491.6L87757.4,30491.6L87757.4,30496.9L87762.7,30496.9L87762.7,30491.6ZM87712,30557.7L87712,30552.4L87706.7,30552.4L87706.7,30557.7L87712,30557.7ZM87676.3,30507L87681.6,30507L87681.6,30501.7L87676.3,30501.7L87676.3,30507ZM87676.3,30547.6L87681.6,30547.6L87681.6,30542.2L87676.3,30542.2L87676.3,30547.6ZM87676.3,30476.6L87681.6,30476.6L87681.6,30471.3L87676.3,30471.3L87676.3,30476.6ZM87762.7,30481.4L87757.4,30481.4L87757.4,30486.8L87762.7,30486.8L87762.7,30481.4ZM87762.7,30542.2L87757.4,30542.2L87757.4,30547.6L87762.7,30547.6L87762.7,30542.2ZM87747.2,30471.3L87747.2,30476.6L87752.6,30476.6L87752.6,30471.3L87747.2,30471.3ZM87742.4,30557.7L87742.4,30552.4L87737.1,30552.4L87737.1,30557.7L87742.4,30557.7ZM87762.7,30557.7L87762.7,30552.4L87757.4,30552.4L87757.4,30557.7L87762.7,30557.7ZM87722.2,30557.7L87722.2,30552.4L87716.8,30552.4L87716.8,30557.7L87722.2,30557.7ZM87676.3,30527.3L87681.6,30527.3L87681.6,30522L87676.3,30522L87676.3,30527.3ZM87676.3,30496.9L87681.6,30496.9L87681.6,30491.6L87676.3,30491.6L87676.3,30496.9ZM87676.3,30557.7L87681.6,30557.7L87681.6,30552.4L87676.3,30552.4L87676.3,30557.7ZM87676.3,30486.8L87681.6,30486.8L87681.6,30481.4L87676.3,30481.4L87676.3,30486.8ZM87762.7,30522L87757.4,30522L87757.4,30527.3L87762.7,30527.3L87762.7,30522ZM87762.7,30471.3L87757.4,30471.3L87757.4,30476.6L87762.7,30476.6L87762.7,30471.3ZM87752.6,30557.7L87752.6,30552.4L87747.2,30552.4L87747.2,30557.7L87752.6,30557.7ZM87732.3,30557.7L87732.3,30552.4L87727,30552.4L87727,30557.7L87732.3,30557.7ZM87762.7,30501.7L87757.4,30501.7L87757.4,30507L87762.7,30507L87762.7,30501.7ZM87762.7,30511.8L87757.4,30511.8L87757.4,30517.2L87762.7,30517.2L87762.7,30511.8ZM87762.7,30532.1L87757.4,30532.1L87757.4,30537.4L87762.7,30537.4L87762.7,30532.1ZM87737.1,30471.3L87737.1,30476.6L87742.4,30476.6L87742.4,30471.3L87737.1,30471.3ZM87727,30471.3L87727,30476.6L87732.3,30476.6L87732.3,30471.3L87727,30471.3ZM87716.8,30471.3L87716.8,30476.6L87722.2,30476.6L87722.2,30471.3L87716.8,30471.3ZM87706.7,30471.3L87706.7,30476.6L87712,30476.6L87712,30471.3L87706.7,30471.3ZM87722.2,30537.4L87722.2,30532.1L87716.8,30532.1L87716.8,30537.4L87722.2,30537.4ZM87696.6,30471.3L87696.6,30476.6L87701.9,30476.6L87701.9,30471.3L87696.6,30471.3ZM87686.4,30471.3L87686.4,30476.6L87691.8,30476.6L87691.8,30471.3L87686.4,30471.3ZM87686.4,30486.8L87691.8,30486.8L87691.8,30481.4L87686.4,30481.4L87686.4,30486.8ZM87686.4,30496.9L87691.8,30496.9L87691.8,30491.6L87686.4,30491.6L87686.4,30496.9ZM87686.4,30507L87691.8,30507L87691.8,30501.7L87686.4,30501.7L87686.4,30507ZM87686.4,30517.2L87691.8,30517.2L87691.8,30511.8L87686.4,30511.8L87686.4,30517.2ZM87686.4,30527.3L87691.8,30527.3L87691.8,30522L87686.4,30522L87686.4,30527.3ZM87686.4,30537.4L87691.8,30537.4L87691.8,30532.1L87686.4,30532.1L87686.4,30537.4ZM87686.4,30547.6L87691.8,30547.6L87691.8,30542.2L87686.4,30542.2L87686.4,30547.6ZM87701.9,30547.6L87701.9,30542.2L87696.6,30542.2L87696.6,30547.6L87701.9,30547.6ZM87712,30547.6L87712,30542.2L87706.7,30542.2L87706.7,30547.6L87712,30547.6ZM87722.2,30547.6L87722.2,30542.2L87716.8,30542.2L87716.8,30547.6L87722.2,30547.6ZM87732.3,30547.6L87732.3,30542.2L87727,30542.2L87727,30547.6L87732.3,30547.6ZM87742.4,30547.6L87742.4,30542.2L87737.1,30542.2L87737.1,30547.6L87742.4,30547.6ZM87752.6,30547.6L87752.6,30542.2L87747.2,30542.2L87747.2,30547.6L87752.6,30547.6ZM87752.6,30532.1L87747.2,30532.1L87747.2,30537.4L87752.6,30537.4L87752.6,30532.1ZM87752.6,30522L87747.2,30522L87747.2,30527.3L87752.6,30527.3L87752.6,30522ZM87752.6,30511.8L87747.2,30511.8L87747.2,30517.2L87752.6,30517.2L87752.6,30511.8ZM87752.6,30501.7L87747.2,30501.7L87747.2,30507L87752.6,30507L87752.6,30501.7ZM87752.6,30491.6L87747.2,30491.6L87747.2,30496.9L87752.6,30496.9L87752.6,30491.6ZM87752.6,30481.4L87747.2,30481.4L87747.2,30486.8L87752.6,30486.8L87752.6,30481.4ZM87737.1,30481.4L87737.1,30486.8L87742.4,30486.8L87742.4,30481.4L87737.1,30481.4ZM87727,30481.4L87727,30486.8L87732.3,30486.8L87732.3,30481.4L87727,30481.4ZM87716.8,30481.4L87716.8,30486.8L87722.2,30486.8L87722.2,30481.4L87716.8,30481.4ZM87706.7,30481.4L87706.7,30486.8L87712,30486.8L87712,30481.4L87706.7,30481.4ZM87696.6,30481.4L87696.6,30486.8L87701.9,30486.8L87701.9,30481.4L87696.6,30481.4ZM87696.6,30496.9L87701.9,30496.9L87701.9,30491.6L87696.6,30491.6L87696.6,30496.9ZM87696.6,30507L87701.9,30507L87701.9,30501.7L87696.6,30501.7L87696.6,30507ZM87696.6,30517.2L87701.9,30517.2L87701.9,30511.8L87696.6,30511.8L87696.6,30517.2ZM87696.6,30527.3L87701.9,30527.3L87701.9,30522L87696.6,30522L87696.6,30527.3ZM87696.6,30537.4L87701.9,30537.4L87701.9,30532.1L87696.6,30532.1L87696.6,30537.4ZM87712,30537.4L87712,30532.1L87706.7,30532.1L87706.7,30537.4L87712,30537.4ZM87732.3,30537.4L87732.3,30532.1L87727,30532.1L87727,30537.4L87732.3,30537.4ZM87742.4,30537.4L87742.4,30532.1L87737.1,30532.1L87737.1,30537.4L87742.4,30537.4ZM87742.4,30522L87737.1,30522L87737.1,30527.3L87742.4,30527.3L87742.4,30522ZM87742.4,30511.8L87737.1,30511.8L87737.1,30517.2L87742.4,30517.2L87742.4,30511.8ZM87742.4,30501.7L87737.1,30501.7L87737.1,30507L87742.4,30507L87742.4,30501.7ZM87742.4,30491.6L87737.1,30491.6L87737.1,30496.9L87742.4,30496.9L87742.4,30491.6ZM87727,30491.6L87727,30496.9L87732.3,30496.9L87732.3,30491.6L87727,30491.6ZM87716.8,30491.6L87716.8,30496.9L87722.2,30496.9L87722.2,30491.6L87716.8,30491.6ZM87706.7,30491.6L87706.7,30496.9L87712,30496.9L87712,30491.6L87706.7,30491.6ZM87706.7,30507L87712,30507L87712,30501.7L87706.7,30501.7L87706.7,30507ZM87706.7,30517.2L87712,30517.2L87712,30511.8L87706.7,30511.8L87706.7,30517.2ZM87706.7,30527.3L87712,30527.3L87712,30522L87706.7,30522L87706.7,30527.3ZM87722.2,30527.3L87722.2,30522L87716.8,30522L87716.8,30527.3L87722.2,30527.3ZM87732.3,30527.3L87732.3,30522L87727,30522L87727,30527.3L87732.3,30527.3ZM87732.3,30511.8L87727,30511.8L87727,30517.2L87732.3,30517.2L87732.3,30511.8ZM87732.3,30501.7L87727,30501.7L87727,30507L87732.3,30507L87732.3,30501.7ZM87716.8,30501.7L87716.8,30507L87722.2,30507L87722.2,30501.7L87716.8,30501.7ZM87716.8,30517.2L87722.2,30517.2L87722.2,30511.8L87716.8,30511.8L87716.8,30517.2ZM87676.3,30537.4L87681.6,30537.4L87681.6,30532.1L87676.3,30532.1L87676.3,30537.4Z"/>
        </g>
    </g>
</svg>
