<?xml version="1.0" encoding="UTF-8" standalone="no"?>
<!DOCTYPE svg PUBLIC "-//W3C//DTD SVG 1.1//EN" "http://www.w3.org/Graphics/SVG/1.1/DTD/svg11.dtd">
<svg width="100%" height="100%" viewBox="0 0 100 100" version="1.1" xmlns="http://www.w3.org/2000/svg" xmlns:xlink="http://www.w3.org/1999/xlink" xml:space="preserve" xmlns:serif="http://www.serif.com/" style="fill-rule:evenodd;clip-rule:evenodd;stroke-linejoin:round;stroke-miterlimit:2;">
    <g transform="matrix(1,0,0,1,50,50)">
        <g transform="matrix(-3.79309e-17,0.619459,0.0730901,4.47548e-18,-2292.24,-17991.2)">
            <path d="M29046.8,30815.4L29043.4,30677.8L29039.9,30815.4C29023.4,30822.8 29008.6,30882.4 28997.7,30974.9L28997.7,30974.9L28997.7,30975C28986.8,31067.5 28979.8,31193 28978.9,31332.3L28962.6,31361.8L28978.9,31391.4C28979.8,31530.7 28986.8,31656.2 28997.7,31748.7L28997.7,31748.8L28997.7,31748.8C29008.6,31841.3 29023.4,31900.9 29039.9,31908.3L29043.4,32045.9L29046.8,31908.3C29063.3,31900.9 29078.1,31841.3 29089,31748.8L29089,31748.8L29089,31748.7C29099.9,31656.2 29107,31530.7 29107.8,31391.4L29124.1,31361.8L29107.8,31332.3C29107,31193 29099.9,31067.5 29089,30975L29089,30974.9L29089,30974.9C29078.1,30882.4 29063.3,30822.8 29046.8,30815.4ZM29043.2,30814.6L29043.4,30808.1L29043.4,30814.6C29043.3,30814.6 29043.2,30814.6 29043.2,30814.6ZM29000.5,30990.1C29010.6,30906.2 29024.2,30851.7 29039.2,30843.1L29038.1,30885C29025.2,30895.1 29013.6,30941.9 29004.7,31013L29000.5,30990.1ZM28982.2,31326.3C28983.2,31199.1 28989.6,31084.3 28999.5,30998.5L29002.2,31033.9C28993.8,31109.5 28988.3,31208.1 28987.1,31317.3L28982.2,31326.3ZM28978.8,31363.2L28978,31361.8L28978.8,31361.8C28978.8,31362.3 28978.8,31362.8 28978.8,31363.2ZM28999.5,31725.2C28989.6,31639.4 28983.2,31524.6 28982.2,31397.4L28987.1,31406.4C28988.3,31515.6 28993.8,31614.2 29002.2,31689.8L28999.5,31725.2ZM29039.2,31880.6C29024.2,31872 29010.6,31817.5 29000.5,31733.6L29004.7,31710.7C29013.6,31781.7 29025.2,31828.6 29038.1,31838.7L29039.2,31880.6ZM29043.5,31909.1L29043.4,31915.6L29043.4,31909.1C29043.4,31909.1 29043.5,31909.1 29043.5,31909.1ZM29086.2,31733.6C29076.1,31817.5 29062.6,31872 29047.5,31880.6L29048.6,31838.7C29061.5,31828.6 29073.1,31781.7 29082.1,31710.7L29086.2,31733.6ZM29104.6,31397.4C29103.5,31524.6 29097.1,31639.4 29087.2,31725.2L29084.5,31689.8C29092.9,31614.2 29098.4,31515.6 29099.6,31406.4L29104.6,31397.4ZM29107.9,31360.5L29108.7,31361.8L29107.9,31361.8C29107.9,31361.4 29107.9,31360.9 29107.9,31360.5ZM29087.2,30998.5C29097.1,31084.3 29103.5,31199.1 29104.6,31326.3L29099.6,31317.3C29098.4,31208.1 29092.9,31109.5 29084.5,31033.9L29087.2,30998.5ZM29047.5,30843.1C29062.6,30851.7 29076.1,30906.2 29086.2,30990.1L29082.1,31013C29073.1,30941.9 29061.5,30895.1 29048.6,30885L29047.5,30843.1ZM29041.5,30883.2L29042.5,30842C29042.8,30842 29043.1,30841.9 29043.4,30841.9L29043.4,30883C29042.7,30883 29042.1,30883.1 29041.5,30883.2ZM29007.5,31028.4C29015.6,30965.8 29025.9,30924 29037.4,30913.1L29031.2,31158.3L29007.5,31028.4ZM28982,31369.1C28982,31366.7 28982,31364.3 28982,31361.8L28986.9,31361.8C28986.9,31367.2 28986.9,31372.6 28986.9,31378L28982,31369.1ZM28990.4,31311.3C28991.7,31214.1 28996.6,31126.2 29004,31057.6L29019.3,31258.6L28990.4,31311.3ZM29004,31666.1C28996.6,31597.5 28991.7,31509.6 28990.4,31412.4L29019.3,31465L29004,31666.1ZM29044.2,31881.7C29043.9,31881.7 29043.6,31881.7 29043.4,31881.7L29043.4,31840.7C29044,31840.7 29044.6,31840.6 29045.3,31840.4L29044.2,31881.7ZM29037.4,31810.5C29025.9,31799.7 29015.6,31757.9 29007.5,31695.3L29031.2,31565.4L29037.4,31810.5ZM29079.3,31695.3C29071.2,31757.9 29060.8,31799.7 29049.3,31810.5L29055.5,31565.4L29079.3,31695.3ZM29104.7,31354.6C29104.7,31357 29104.7,31359.4 29104.7,31361.8L29099.9,31361.8C29099.9,31356.4 29099.8,31351.1 29099.8,31345.7L29104.7,31354.6ZM29096.3,31412.4C29095,31509.6 29090.1,31597.5 29082.7,31666.1L29067.4,31465L29096.3,31412.4ZM29082.7,31057.6C29090.1,31126.2 29095,31214.1 29096.3,31311.3L29067.4,31258.6L29082.7,31057.6ZM29049.3,30913.1C29060.8,30924 29071.2,30965.8 29079.3,31028.4L29055.5,31158.3L29049.3,30913.1ZM29040.8,30910.9C29041.6,30910.5 29042.5,30910.3 29043.4,30910.3L29043.4,31361.8L29054.9,31264L29096.6,31339.8C29096.6,31347.1 29096.6,31354.4 29096.6,31361.8L29043.4,31361.8L29054.9,31459.7L29046,31812.8C29045.1,31813.2 29044.2,31813.3 29043.4,31813.3L29043.4,31361.8L29031.8,31459.7L28990.1,31383.9C28990.1,31376.6 28990.1,31369.2 28990.1,31361.8L29043.4,31361.8L29031.8,31264L29040.8,30910.9ZM29078.1,31067L29065.9,31227.9L29060.3,31217.9L29078.1,31067ZM29008.6,31656.7L29020.8,31495.8L29026.4,31505.8L29008.6,31656.7ZM29078.1,31656.7L29059.2,31552.6L29060.3,31505.8L29078.1,31656.7ZM29008.6,31067L29027.6,31171L29026.4,31217.9L29008.6,31067Z"/>
        </g>
    </g>
</svg>
